<?xml version="1.0" encoding="utf-8"?>
<!-- Generator: Adobe Illustrator 27.5.0, SVG Export Plug-In . SVG Version: 6.00 Build 0)  -->
<svg version="1.1" id="Layer_1" xmlns="http://www.w3.org/2000/svg" xmlns:xlink="http://www.w3.org/1999/xlink" x="0px" y="0px"
	 viewBox="0 0 500 500" style="enable-background:new 0 0 500 500;" xml:space="preserve">
<style type="text/css">
	.st0{fill:#1CD643;}
	.st1{opacity:0.35;}
	.st2{opacity:0.35;fill:#1CD643;}
</style>
<g>
	<path class="st0" d="M492.9,5.5C489.7,2,485.2,0,480.5,0h-461c-4.7,0-9.2,2-12.4,5.5C3.8,9.1,2,13.8,2,18.7v76.6h496V18.7
		C498,13.8,496.2,9.1,492.9,5.5z M56,66.5c-6.5,0-11.8-5.3-11.8-11.8c0-6.5,5.3-11.8,11.8-11.8c6.5,0,11.8,5.3,11.8,11.8
		S62.5,66.5,56,66.5L56,66.5z M98.8,66.4c-6.5,0-11.7-5.2-11.7-11.7S92.3,43,98.8,43s11.7,5.2,11.7,11.7S105.3,66.4,98.8,66.4z
		 M141.6,66.4c-6.5,0-11.7-5.2-11.7-11.7S135.1,43,141.6,43c6.5,0,11.7,5.2,11.7,11.7c0,0,0,0,0,0C153.3,61.2,148.1,66.4,141.6,66.4
		z"/>
	<g class="st1">
		<g>
			<circle class="st0" cx="98.8" cy="54.8" r="11.7"/>
			<circle class="st0" cx="56" cy="54.7" r="11.7"/>
			<circle class="st0" cx="141.6" cy="54.7" r="11.7"/>
		</g>
	</g>
	<path class="st0" d="M56.1,165.7h188.5c4.1,0,7.4,3.3,7.4,7.4v135.4c0,4.1-3.3,7.4-7.4,7.4H56.1c-4.1,0-7.4-3.3-7.4-7.4V173.1
		C48.7,169,52,165.7,56.1,165.7z"/>
	<path class="st0" d="M245.1,345.1H58.7c-3.8,0-6.9,3.1-6.9,6.9c0,3.8,3.1,6.9,6.9,6.9h186.4c3.8,0,6.9-3.1,6.9-6.9
		C252,348.2,248.9,345.1,245.1,345.1C245.1,345.1,245.1,345.1,245.1,345.1L245.1,345.1z"/>
	<path class="st0" d="M448.4,172.7c0-1.7-1.3-3-3-3.1h-52.2c-1.7,0-3.1,1.4-3.1,3.1v0v11.4h14.1c2.1,0.1,3.8,1.8,3.9,3.9
		c-0.1,2.1-1.8,3.8-3.9,3.9h-14.1v10.6h5.3c2,0,3.7,1.7,3.7,3.7c0,0,0,0,0,0c0,2.2-1.8,4-4,4c0,0-0.1,0-0.1,0h-4.9v10.6h14.3
		c2,0.1,3.6,1.7,3.7,3.7v0.4c-0.1,2-1.7,3.6-3.7,3.7h-14.3v10.6h5.1c2.1-0.3,4.1,1.1,4.5,3.2s-1.1,4.1-3.2,4.5
		c-0.4,0.1-0.8,0.1-1.2,0h-5.1v10.6h14.1c2.1,0.1,3.8,1.8,3.9,3.9c0,2.2-1.7,3.9-3.9,3.9h-14.1v10.6h5.1c2.2,0,3.9,1.7,3.9,3.9
		c-0.1,2.1-1.8,3.8-3.9,3.9h-5.1v10.5h14.1c2.1,0.1,3.8,1.8,3.9,3.9c0,2.2-1.7,3.9-3.9,3.9h-14.1v10.6h5.1c2.2,0,3.9,1.7,3.9,3.9
		c-0.1,2.1-1.8,3.8-3.9,3.9h-5.1v10.5h14.1c2.1,0.1,3.8,1.8,3.9,3.9c0,2.2-1.7,3.9-3.9,3.9h-14.1v10.6h5.1c2.2,0,3.9,1.7,3.9,3.9
		c-0.1,2.1-1.8,3.8-3.9,3.9h-5.1v10.5h14.1c2.1,0.1,3.8,1.8,3.9,3.9c0,2.2-1.7,3.9-3.9,3.9h-14.1V386h5.1c2.2,0,3.9,1.7,3.9,3.9
		c-0.1,2.1-1.8,3.8-3.9,3.9h-5.1v10.5h14.1c2.1,0.1,3.8,1.8,3.9,3.9c0,2.2-1.7,3.9-3.9,3.9h-14.1v10.6h5.1c2.2,0,3.9,1.7,3.9,3.9
		c-0.1,2.1-1.8,3.8-3.9,3.9h-5.1v10.6h14.1c2.1,0,3.8,1.7,3.9,3.8c0,2.2-1.7,3.9-3.9,3.9h-14.1v10.6h5.1c2.2,0,3.9,1.7,3.9,3.9
		c-0.1,2.1-1.8,3.8-3.9,3.9h-5.1v29.7c0,1.7,1.4,3.1,3.1,3.1l0,0h52.2c1.7-0.1,3-1.4,3-3.1V172.7z M404.2,485.5h-14.1v-7.7h14.1
		c2.1,0,3.8,1.7,3.9,3.8C408.1,483.8,406.4,485.5,404.2,485.5L404.2,485.5z"/>
	<path class="st2" d="M299.4,216.7l18.2-31.4h18.1l18.1,31.4H299.4z"/>
	<path class="st0" d="M353.8,216.7v233.8h-54.3V216.7H353.8z M335.7,185.3l-9-15.7l-9.1,15.7H335.7z"/>
	<path class="st2" d="M299.5,450.5h18.1v18.1h-18.1V450.5z M317.6,450.5h36.2v18.1h-36.2V450.5z"/>
	<path class="st0" d="M299.5,472.8v-4.2h18.1v4.2c0,11.5,7.2,21.8,18.1,25.6c-2.9,1.1-5.9,1.6-9,1.6c-7.2,0-14.2-2.9-19.3-8
		C302.3,486.9,299.5,480,299.5,472.8L299.5,472.8z"/>
	<path class="st0" d="M317.6,472.8v-4.2h36.3v4.2c0,11.5-7.2,21.8-18.1,25.6C324.9,494.6,317.7,484.3,317.6,472.8L317.6,472.8z"/>
	<path class="st2" d="M2,95.3v309.6c0,4.9,1.8,9.6,5.1,13.2c3.2,3.5,7.7,5.5,12.4,5.5h280V216.7h-0.1l18.2-31.4l9.1-15.7l9,15.7
		l18.1,31.4v206.9h126.7c4.7,0,9.2-2,12.4-5.5c3.3-3.6,5.1-8.3,5.1-13.2V95.3H2z M245.1,358.9H58.7c-3.8,0-6.9-3.1-6.9-6.9
		c0-3.8,3.1-6.9,6.9-6.9h186.4c3.8,0,6.9,3.1,6.9,6.9C252,355.8,248.9,358.9,245.1,358.9C245.1,358.9,245.1,358.9,245.1,358.9
		L245.1,358.9z M252,308.5c0,4.1-3.3,7.4-7.4,7.4H56.1c-4.1,0-7.4-3.3-7.4-7.4V173.1c0-4.1,3.3-7.4,7.4-7.4h188.5
		c4.1,0,7.4,3.3,7.4,7.4V308.5z"/>
</g>
</svg>
