<?xml version="1.0" encoding="utf-8"?>
<!-- Generator: Adobe Illustrator 27.5.0, SVG Export Plug-In . SVG Version: 6.00 Build 0)  -->
<svg version="1.1" id="Layer_1" xmlns="http://www.w3.org/2000/svg" xmlns:xlink="http://www.w3.org/1999/xlink" x="0px" y="0px"
	 viewBox="0 0 500 500" style="enable-background:new 0 0 500 500;" xml:space="preserve">
<style type="text/css">
	.st0{opacity:0.35;fill:#1CD643;}
	.st1{fill:#FFFFFF;}
	.st2{fill:#1CD643;}
</style>
<path class="st0" d="M432.3,168.6c-5.8-76.8-69.9-137.3-148.2-137.3c-52.9,0-99.4,27.7-125.7,69.3c-6.1-1.8-12.5-2.8-19.2-2.8
	c-32.6,0-59.7,23.4-65.5,54.3c-35.8,13-61.4,47.3-61.4,87.6c0,51.5,41.7,93.2,93.2,93.2h111.8v39.8c0,9.7-7.9,17.5-17.5,17.5h-45.6
	V402h45.6c16.1,0,29.2-13.1,29.2-29.2V333h31v113.6h11.7V333h28.5v39.8c0,16.1,13.1,29.2,29.2,29.2h45.6v-11.7h-45.6
	c-9.7,0-17.5-7.9-17.5-17.5V333h89.1c0.5,0,1.1,0,1.6,0s1.1,0,1.6,0h0.9v0c45.7-1.3,82.3-38.8,82.3-84.8
	C487.6,211.7,464.6,180.6,432.3,168.6z"/>
<g>
	<g>
		<path class="st1" d="M375,128.2c-2.4,0-4.8-1.2-6.3-3.3c-15.3-22.5-40.7-35.9-67.8-35.9c-2.8,0-5.6,0.1-8.4,0.4
			c-4.2,0.4-7.9-2.6-8.3-6.8c-0.4-4.2,2.6-7.9,6.8-8.3c3.3-0.3,6.6-0.5,9.9-0.5c32.2,0,62.2,15.9,80.4,42.5c2.4,3.5,1.5,8.2-2,10.6
			C377.9,127.8,376.5,128.2,375,128.2z"/>
	</g>
</g>
<circle class="st2" cx="155.9" cy="396.1" r="22.1"/>
<circle class="st2" cx="375.2" cy="396.1" r="22.1"/>
<circle class="st2" cx="266" cy="446.6" r="22.1"/>
</svg>
