<?xml version="1.0" encoding="utf-8"?>
<!-- Generator: Adobe Illustrator 27.5.0, SVG Export Plug-In . SVG Version: 6.00 Build 0)  -->
<svg version="1.1" id="Layer_1" xmlns="http://www.w3.org/2000/svg" xmlns:xlink="http://www.w3.org/1999/xlink" x="0px" y="0px"
	 viewBox="0 0 500 500" style="enable-background:new 0 0 500 500;" xml:space="preserve">
<style type="text/css">
	.st0{opacity:0.35;fill:#1CD643;}
	.st1{opacity:0.35;}
	.st2{opacity:0.35;fill:#1CD643;enable-background:new    ;}
	.st3{fill:#1CD643;}
	.st4{fill:#0073EC;}
</style>
<path class="st0" d="M478,173.6c0,0-0.1,0-0.1,0H293.5c-0.2-4.4-1-8.9-2.6-13.3l-0.5-1.1l16.2-7.7c3.1-1.4,4.5-5.1,3-8.2
	c0,0,0,0,0-0.1c-1.5-3.1-5.2-4.4-8.3-3l-17.8,8.4c-14.4-17.2-40-19.4-57.2-5c-9.3,7.8-14.2,18.8-14.5,30H22.1
	c-12.1,0.1-22,9.9-22.1,22V298c0.1,12.1,10,21.9,22.1,22h455.8c12.1-0.1,22-9.9,22.1-22V195.6C500,183.4,490.2,173.6,478,173.6z"/>
<g class="st1">
	<path class="st2" d="M259.4,38.3C332,43,389.9,100.9,394.6,173.5h17.5C406.7,84,329.7,15.9,240.2,21.4
		c-81.9,5-147.2,70.3-152.1,152.1h17.5C110.7,93.7,179.6,33.2,259.4,38.3z"/>
</g>
<path class="st0" d="M477.9,332.9H22.1c-12.1,0.1-22,9.9-22.1,22v102.4c0.1,12.1,10,21.9,22.1,22h455.8c12.1-0.1,22-9.9,22.1-22
	V354.9c0-12.2-9.8-22-22-22C478,332.9,477.9,332.9,477.9,332.9z"/>
<path class="st3" d="M316.8,421.3c-8.4,0-15.2-6.8-15.2-15.2s6.8-15.2,15.2-15.2c8.4,0,15.2,6.8,15.2,15.2S325.2,421.3,316.8,421.3
	L316.8,421.3z M374.9,421.3c-8.4,0-15.2-6.8-15.2-15.2s6.8-15.2,15.2-15.2c8.4,0,15.2,6.8,15.2,15.2S383.3,421.3,374.9,421.3
	L374.9,421.3z M430.2,421.3c-8.4,0-15.2-6.8-15.2-15.2s6.8-15.2,15.2-15.2c8.4,0,15.2,6.8,15.2,15.2c0.1,8.3-6.7,15.1-15,15.2
	C430.3,421.3,430.3,421.3,430.2,421.3z M430.2,231.5c-8.4,0-15.2,6.8-15.2,15.2s6.8,15.2,15.2,15.2c8.4,0,15.2-6.8,15.2-15.2
	c0.1-8.3-6.7-15.1-15-15.2C430.3,231.5,430.3,231.5,430.2,231.5z M374.9,231.5c-8.4,0-15.2,6.8-15.2,15.2s6.8,15.2,15.2,15.2
	c8.4,0,15.2-6.8,15.2-15.2S383.3,231.5,374.9,231.5L374.9,231.5z M316.8,231.6c-8.4,0-15.2,6.8-15.2,15.2s6.8,15.2,15.2,15.2
	c8.4,0,15.2-6.8,15.2-15.2S325.2,231.6,316.8,231.6L316.8,231.6z"/>
<path class="st0" d="M128.8,173.5c1.2-16.6,5.9-32.8,13.8-47.5l14.1,8.1c2.1,1.2,4.8,0.5,6.1-1.6c1.2-2,0.5-4.7-1.5-5.9
	c-0.1,0-0.1-0.1-0.2-0.1l-14.1-8.2c9.8-15.6,23.1-28.9,38.7-38.7l8.3,14.3c1.2,2.1,3.9,2.8,6,1.6c2.1-1.2,2.8-3.9,1.6-6l-8.2-14.3
	c16.2-8.5,34-13.3,52.3-13.9v19.3c0,2.4,2,4.4,4.4,4.4s4.4-2,4.4-4.4V61.3c18.6,0.7,36.9,5.6,53.3,14.4L298.9,91
	c-1.2,2.1-0.5,4.8,1.6,6.1c2.1,1.2,4.8,0.5,6-1.6c0,0,0.1-0.1,0.1-0.1l8.8-15.2c15.1,9.6,28,22.5,37.6,37.6l-15,8.7
	c-2.1,1.2-2.9,3.9-1.7,6c0,0,0,0,0,0h0.1c1.1,2.1,3.7,2.9,5.8,1.8c0.1,0,0.1-0.1,0.2-0.1l15-8.7c8,14.9,12.8,31.2,14.1,48h8.6
	c-4.9-67.5-61.3-120.9-130-120.9S125,106,120.1,173.5H128.8z"/>
<path class="st4" d="M262.9,200.2c-10.6,3.8-21.5,1.3-28.9-6.1c-10.5-10.5-10.5-27.5,0-38c5-5,11.8-7.8,19-7.9
	c10.5,0,20,5.9,24.8,16.2l0.3,0.8c5.1,13.9-0.9,28.4-14.4,34.7L262.9,200.2z M253,160.6c-8,0.1-14.5,6.6-14.4,14.6
	c0,3.8,1.5,7.4,4.2,10.1c5.7,5.5,14.7,5.5,20.4,0c2.8-2.7,4.3-6.4,4.3-10.2C267.5,167.1,261,160.6,253,160.6z"/>
<ellipse class="st3" cx="253" cy="175.1" rx="6.3" ry="5.8"/>
<path class="st3" d="M262.9,200.2c-10.6,3.8-21.5,1.3-28.9-6.1c-10.5-10.5-10.5-27.5,0-38c5-5,11.8-7.8,19-7.9
	c10.5,0,20,5.9,24.8,16.2l0.3,0.8c5.1,13.9-0.9,28.4-14.4,34.7L262.9,200.2z M253,160.6c-8,0.1-14.5,6.6-14.4,14.6
	c0,3.8,1.5,7.4,4.2,10.1c5.7,5.5,14.7,5.5,20.4,0c2.8-2.7,4.3-6.4,4.3-10.2C267.5,167.1,261,160.6,253,160.6z"/>
<path class="st3" d="M224.3,146.6c15.8-15.8,41.4-15.9,57.3-0.1c0.7,0.7,1.3,1.4,1.9,2.1l17.8-8.4c3.1-1.4,6.8-0.1,8.3,3
	c1.4,3.1,0.1,6.8-3,8.2l-16.2,7.7l0.5,1.1c1.6,4.2,2.5,8.7,2.6,13.2h78c-1.3-16.8-6.1-33.1-14.1-48l-15,8.7c-2,1.2-4.7,0.5-5.9-1.5
	c0-0.1-0.1-0.1-0.1-0.2h-0.1c-1.2-2.1-0.4-4.8,1.7-6c0,0,0,0,0,0l15-8.7c-9.6-15.1-22.5-28-37.6-37.6l-8.8,15.2
	c-1.2,2.1-3.8,2.9-6,1.8c0,0-0.1-0.1-0.1-0.1c-2.1-1.3-2.8-4-1.6-6.1l8.9-15.3c-16.4-8.8-34.7-13.7-53.3-14.4v19.4
	c0,2.4-2,4.4-4.4,4.4s-4.4-2-4.4-4.4V61.3c-18.3,0.6-36.1,5.4-52.3,13.9l8.2,14.3c1.2,2.1,0.5,4.8-1.6,6c-2.1,1.2-4.8,0.5-6-1.6
	l-8.3-14.3c-15.6,9.8-28.9,23.1-38.7,38.7l14.1,8.2c2.1,1.1,2.9,3.7,1.8,5.8c0,0.1-0.1,0.1-0.1,0.2c-1.3,2.1-4,2.8-6.1,1.6
	l-14.1-8.1c-7.9,14.7-12.6,30.9-13.8,47.5h83.7C212.9,163.4,217.1,153.8,224.3,146.6L224.3,146.6z"/>
<path class="st3" d="M120.1,173.5c4.9-67.5,61.3-120.9,130-120.9s125.1,53.4,130,120.9h14.5c-5.1-79.8-74-140.3-153.8-135.2
	c-72.6,4.7-130.5,62.6-135.2,135.2H120.1z"/>
</svg>
