<?xml version="1.0" encoding="utf-8"?>
<!-- Generator: Adobe Illustrator 27.5.0, SVG Export Plug-In . SVG Version: 6.00 Build 0)  -->
<svg version="1.1" id="Layer_1" xmlns="http://www.w3.org/2000/svg" xmlns:xlink="http://www.w3.org/1999/xlink" x="0px" y="0px"
	 viewBox="0 0 500 500" style="enable-background:new 0 0 500 500;" xml:space="preserve">
<style type="text/css">
	.st0{opacity:0.35;fill:#1CD643;}
	.st1{fill:#1CD643;}
</style>
<path class="st0" d="M477.9,347.6H22.1c-12.2,0.1-22,9.9-22.1,22.1V472c0.1,12.2,9.9,22,22.1,22.1h455.8c12.2-0.1,22-9.9,22.1-22.1
	V369.7C500,357.5,490.1,347.6,477.9,347.6L477.9,347.6z"/>
<path class="st1" d="M430.2,405.7c-8.4,0-15.2,6.8-15.2,15.2s6.8,15.2,15.2,15.2c8.4,0,15.2-6.8,15.2-15.2c0.1-8.3-6.7-15.1-15-15.2
	C430.3,405.7,430.3,405.7,430.2,405.7z M374.9,405.7c-8.4,0-15.2,6.8-15.2,15.2s6.8,15.2,15.2,15.2c8.4,0,15.2-6.8,15.2-15.2
	c0.1-8.3-6.7-15.1-15-15.2C375,405.7,375,405.7,374.9,405.7z M316.8,405.7c-8.4,0-15.2,6.8-15.2,15.2s6.8,15.2,15.2,15.2
	c8.4,0,15.2-6.8,15.2-15.2S325.2,405.7,316.8,405.7L316.8,405.7z"/>
<path class="st0" d="M321.6,115.5l-6.3-6.3c-2.9-2.8-4.5-6.7-4.5-10.8v-4c0.1-3.1-1.3-6-3.8-7.9c-38.1-28-94.1-17.9-112-13.7
	c-3.4,0.8-5.8,3.9-5.8,7.4v18.2c0,4.1-1.6,8-4.5,10.8l-6.3,6.3c-2.8,2.8-4.4,6.7-4.4,10.7v8.9c0,24,11.2,46.5,30.4,60.9v60.8h91.2
	V196c19.2-14.4,30.4-36.9,30.4-60.9v-8.9C326,122.2,324.4,118.3,321.6,115.5L321.6,115.5z M450.9,175.5
	c-11.7-11.5-33.3-16.7-57.6-17.4c-4.1-0.1-8.1,1.5-11,4.4l-13.8,13.8c-2.8,2.9-4.4,6.8-4.4,10.8v8.9c0,16.3,8.7,31.4,22.8,39.5v32.1
	h45.6v-32.1c14.1-8.1,22.8-23.2,22.8-39.5v-9.7C455.4,182.3,453.8,178.4,450.9,175.5z"/>
<path class="st1" d="M250,256.8L225.7,281c-3,3-7.8,3-10.7,0c-0.2-0.2-0.5-0.5-0.7-0.7l-25.1-33.2l6.5-13.8
	c1.8-3.8,6.3-5.4,10.1-3.6c0.3,0.1,0.5,0.3,0.8,0.4L250,256.8z M250,256.8l24.3,24.2c3,3,7.8,3,10.7,0c0.2-0.2,0.5-0.5,0.7-0.7
	l25.1-33.2l-6.5-13.8c-1.8-3.8-6.3-5.4-10.1-3.6c-0.3,0.1-0.5,0.3-0.8,0.4L250,256.8z"/>
<path class="st1" d="M318.4,5.9h-91.2c-33.6,0-60.8,27.2-60.8,60.8l0,0v18.1c0,8.2,1.3,16.3,3.9,24l2.5,7.6c0.8,2.3,1.2,4.8,1.2,7.2
	v2.6c0-4,1.6-7.9,4.4-10.7l6.3-6.3c2.9-2.8,4.5-6.7,4.5-10.8V80.2c0-3.5,2.4-6.6,5.8-7.4c17.9-4.2,73.9-14.3,112,13.7
	c2.5,1.9,3.9,4.8,3.8,7.9v4c0,4.1,1.6,8,4.5,10.8l6.3,6.3c2.8,2.8,4.4,6.7,4.4,10.7v1.3v-3.9c0-2.4,0.4-4.9,1.2-7.2l2.5-7.6
	c2.6-7.7,3.9-15.8,3.9-24V21.1C333.6,12.7,326.8,5.9,318.4,5.9L318.4,5.9L318.4,5.9z M447.7,119.9h-53.2
	c-12.6,0-22.8,10.2-22.8,22.8c0,8.4,6.8,15.2,15.2,15.3l1.1,0.9c1.7-0.6,3.5-0.9,5.3-0.8c24.3,0.7,45.9,5.9,57.6,17.4
	c2.5,2.5,4,5.8,4.3,9.3l5.4-18.7c1.5-5.4,2.3-11.1,2.3-16.7v-14.3C462.9,126.7,456.1,119.9,447.7,119.9L447.7,119.9L447.7,119.9z"/>
<path class="st1" d="M364.1,187.1c0-4,1.6-7.9,4.4-10.8l13.8-13.8c2.9-2.9,6.9-4.5,11-4.4h1.2v-30.6h-15.2
	c-12.6,0-22.8,10.2-22.8,22.8v5.4c0,6.5,1,13,3.1,19.2l4.5,13.5V187.1z M20.7,248.1c11.3,5.2,23.2,8.9,35.5,11.1
	c2.4-2.8,3.7-6.3,3.7-10v-13.7c-12.3-7.1-20.6-19.5-22.4-33.6c-0.5-3.2,1.1-6.4,4-7.9c4.8-2.5,9.4-5.5,13.5-9.1
	c4.3-3.9,7.8-8.5,10.4-13.7c1.5-3.3,5.1-5,8.6-4.2c19,4.9,36.6,14,51.6,26.5c1.8,1.5,2.8,3.8,2.6,6.1c-1.2,15-9.7,28.4-22.7,35.9
	v13.7c0,3.8,1.4,7.4,4,10.2c12.8-2.1,25.2-5.9,36.9-11.3c3.7-1.6,5.5-5.9,4-9.7c-6.5-17.2-11.7-46.8-12.8-62.2
	c-2.1-29.3-24.2-53.2-54.1-53.2s-51.9,23.9-54,53.2c-1.2,15.4-6.3,45-12.8,62.2C15.2,242.2,17,246.5,20.7,248.1L20.7,248.1z
	 M19.8,347.8l2.3-0.2h103.8c-3.1-1-5.2-3.9-5.2-7.2v-47.1c0-8.4,3.5-16.5,9.7-22.2l-9.4-4.8c-13.6,21.2-41.7,27.3-62.9,13.7
	c-5.5-3.5-10.2-8.2-13.7-13.7l-17.5,8.8c-7.7,3.9-12.6,11.8-12.6,20.4v44.9C14.3,343.8,16.5,346.8,19.8,347.8L19.8,347.8z
	 M379.3,293.3v47.1c0,3.3-2.1,6.2-5.2,7.2h103.8l2.3,0.2c3.3-1,5.5-4,5.5-7.4v-55.6c0-10.2-6.7-19.1-16.5-21.9l-36.7-10.5l-4.6,3.1
	c-11,7.3-25.4,7.3-36.4,0l-4.6-3.1l-34.4,9.9l6.7,2.4C371.3,269,379.3,280.5,379.3,293.3L379.3,293.3z"/>
<path class="st0" d="M19.8,347.8l2.3-0.2h103.8c-3.1-1-5.2-3.9-5.2-7.2v-47.1c0-8.4,3.5-16.5,9.7-22.2l-16.5-8.3
	c-5.1-2.6-8.4-7.8-8.4-13.6v-13.7c13-7.5,21.5-20.9,22.7-35.9c0.2-2.3-0.8-4.6-2.6-6.1C110.6,181,93,171.9,74,167
	c-3.5-0.8-7.1,0.9-8.6,4.2c-2.6,5.2-6.1,9.8-10.4,13.7c-4.1,3.6-8.7,6.6-13.5,9.1c-2.9,1.5-4.5,4.7-4,7.9
	c1.8,14.1,10.1,26.5,22.4,33.6v13.7c0,5.8-3.2,11-8.4,13.6l-24.6,12.3c-7.7,3.9-12.6,11.8-12.6,20.4v44.9
	C14.3,343.8,16.5,346.8,19.8,347.8L19.8,347.8z"/>
<path class="st0" d="M125.9,347.6h248.2c3.1-1,5.2-3.9,5.2-7.2v-47.1c0-12.8-8-24.3-20.1-28.6l-63.6-23.1L250,256.8l-45.6-15.2
	l-63.6,23.1c-12.1,4.3-20.1,15.8-20.1,28.6v47.1C120.7,343.7,122.8,346.6,125.9,347.6L125.9,347.6z"/>
</svg>
