<?xml version="1.0" encoding="utf-8"?>
<!-- Generator: Adobe Illustrator 27.5.0, SVG Export Plug-In . SVG Version: 6.00 Build 0)  -->
<svg version="1.1" id="Layer_1" xmlns="http://www.w3.org/2000/svg" xmlns:xlink="http://www.w3.org/1999/xlink" x="0px" y="0px"
	 viewBox="0 0 500 505.5" style="enable-background:new 0 0 500 505.5;" xml:space="preserve">
<style type="text/css">
	.st0{fill:#1CD643;}
	.st1{fill:#B0F1BD;}
</style>
<g>
	<path class="st0" d="M381,101.5H133.1c-7.8,0-14.1,6.3-14.1,14.1v20.6h63.2c3.7,0,7.3,1.4,10,4.1c2.6,2.7,4.1,6.3,4.1,10v79.9
		h198.8V115.6C395.1,107.8,388.8,101.5,381,101.5L381,101.5"/>
	<path class="st1" d="M257.1,4.5c-1,0-2.1,0-3.1,0.1c-50.4,1.6-90.9,42.1-92.6,92.6v4.4h35.5v-4.4c1.3-32.4,28-57.7,60.1-57.7
		c0.8,0,1.7,0,2.5,0.1c31.3,1.3,56.4,26.4,57.7,57.7v4.4h35.5v-4.4C351,45.3,308.5,4.5,257.1,4.5"/>
	<path class="st0" d="M182.2,175.3V155c0-2.6-2.1-4.7-4.7-4.7h-67.9c-2.6,0-4.7,2.1-4.7,4.7v20.3c0,2.6,2.1,4.7,4.7,4.7h67.9
		C180.1,180,182.2,177.9,182.2,175.3 M126.8,165.2c0,3.9-3.1,7-7,7c-3.9,0.1-7-3-7.1-6.9l0-0.1c0-3.9,3.2-7.1,7.1-7.1
		c3.9,0,7,3.1,7,7L126.8,165.2 M174.4,165.2c0,3.9-3.1,7-7,7l-0.1,0c-3.9,0-7-3.1-7-7c-0.1-3.9,3-7,6.9-7.1l0.1,0
		C171.2,158.1,174.4,161.3,174.4,165.2L174.4,165.2"/>
	<path class="st1" d="M167.3,158.1L167.3,158.1c-0.2,0-0.3,0-0.4,0l0,0c0,0,0,0,0,0c0,0,0,0,0,0c0,0,0,0,0,0c0,0,0,0,0,0
		c0,0,0,0,0,0c0,0,0,0,0,0c0,0,0,0,0,0c0,0,0,0,0,0c0,0,0,0,0,0c-0.4,0-0.8,0.1-1.2,0.2c0,0,0,0,0,0c0,0,0,0,0,0c0,0,0,0,0,0
		c0,0,0,0,0,0c0,0,0,0,0,0c0,0,0,0,0,0c0,0,0,0,0,0c0,0,0,0,0,0c0,0,0,0,0,0c0,0,0,0,0,0c0,0,0,0,0,0c0,0,0,0,0,0c0,0,0,0,0,0
		c0,0,0,0,0,0c-1.3,0.4-2.5,1.1-3.4,2.1c0,0,0,0,0,0c0,0,0,0,0,0c0,0,0,0,0,0c0,0,0,0,0,0c0,0,0,0,0,0c0,0,0,0,0,0c0,0,0,0,0,0
		c0,0,0,0,0,0c0,0,0,0,0,0c0,0,0,0,0,0c-0.5,0.5-0.8,1.1-1.1,1.8c0,0,0,0,0,0c0,0,0,0,0,0c0,0,0,0,0,0c0,0,0,0,0,0c0,0,0,0,0,0
		c0,0,0,0,0,0c0,0,0,0,0,0s0,0,0,0c0,0,0,0,0,0c0,0,0,0,0,0c0,0,0,0,0,0c0,0,0,0,0,0c0,0,0,0,0,0c0,0,0,0,0,0
		c-0.3,0.8-0.5,1.7-0.5,2.6l0,0.1c0,3.9,3.1,7,7,7l0,0l0.1,0c0,0,0,0,0,0c0,0,0,0,0.1,0c0.9,0,1.7-0.2,2.5-0.5c0,0,0,0,0,0
		c0,0,0,0,0,0c0,0,0,0,0,0c0,0,0,0,0,0c0,0,0,0,0,0c0,0,0,0,0,0c0,0,0,0,0,0c0,0,0,0,0,0c0,0,0,0,0,0c0,0,0,0,0,0c0,0,0,0,0,0
		c0,0,0,0,0,0c0,0,0,0,0,0c0,0,0,0,0,0c0,0,0,0,0,0c0,0,0,0,0,0c0,0,0,0,0,0c0,0,0,0,0,0c0,0,0,0,0,0c0,0,0,0,0,0
		c0.5-0.2,0.9-0.5,1.3-0.7c0,0,0,0,0,0c0,0,0,0,0,0c0,0,0,0,0,0c0,0,0,0,0,0c1.2-0.8,2.1-2,2.5-3.4c0,0,0,0,0,0c0,0,0,0,0,0
		c0,0,0,0,0,0c0,0,0,0,0,0c0,0,0,0,0,0c0,0,0,0,0,0c0.2-0.7,0.3-1.4,0.4-2.1l0-0.1c0-3.8-2.9-6.9-6.7-7.1
		C167.6,158.1,167.4,158.1,167.3,158.1"/>
	<path class="st0" d="M167.3,172.2C167.3,172.2,167.4,172.2,167.3,172.2L167.3,172.2 M169.9,171.7c-0.8,0.3-1.6,0.5-2.5,0.5
		C168.3,172.2,169.2,172,169.9,171.7 M170,171.7C170,171.7,170,171.7,170,171.7C170,171.7,170,171.7,170,171.7 M170,171.7
		C170,171.7,170,171.7,170,171.7C170,171.7,170,171.7,170,171.7 M170,171.7C170,171.7,170,171.7,170,171.7
		C170,171.7,170,171.7,170,171.7 M170,171.7C170,171.7,170,171.7,170,171.7C170,171.7,170,171.7,170,171.7 M170,171.7
		C170,171.7,170,171.7,170,171.7C170,171.7,170,171.7,170,171.7 M170.1,171.7C170.1,171.7,170.1,171.7,170.1,171.7
		C170.1,171.7,170.1,171.7,170.1,171.7 M170.1,171.7C170.1,171.7,170.1,171.7,170.1,171.7C170.1,171.7,170.1,171.7,170.1,171.7
		 M170.1,171.7C170.1,171.7,170.1,171.7,170.1,171.7C170.1,171.7,170.1,171.7,170.1,171.7 M170.1,171.7
		C170.1,171.7,170.1,171.7,170.1,171.7C170.1,171.7,170.1,171.7,170.1,171.7 M170.1,171.7C170.1,171.7,170.1,171.7,170.1,171.7
		C170.1,171.7,170.1,171.7,170.1,171.7 M171.5,170.9C171.5,170.9,171.5,170.9,171.5,170.9C171.5,170.9,171.5,170.9,171.5,170.9
		 M171.5,170.9C171.5,170.9,171.5,170.9,171.5,170.9C171.5,170.9,171.5,170.9,171.5,170.9 M174,167.5c-0.5,1.4-1.4,2.6-2.5,3.4
		C172.7,170.1,173.6,168.9,174,167.5 M174,167.5C174,167.5,174,167.5,174,167.5C174,167.5,174,167.5,174,167.5 M174,167.5
		C174,167.5,174,167.5,174,167.5C174,167.5,174,167.5,174,167.5 M174,167.4C174,167.4,174,167.4,174,167.4
		C174,167.4,174,167.4,174,167.4 M174.4,165.2L174.4,165.2L174.4,165.2 M160.8,162.5C160.8,162.5,160.8,162.5,160.8,162.5
		C160.8,162.5,160.8,162.5,160.8,162.5 M160.8,162.5C160.8,162.5,160.8,162.5,160.8,162.5C160.8,162.5,160.8,162.5,160.8,162.5
		 M160.8,162.5C160.8,162.5,160.8,162.5,160.8,162.5C160.8,162.5,160.8,162.5,160.8,162.5 M160.8,162.4
		C160.8,162.4,160.8,162.4,160.8,162.4C160.8,162.4,160.8,162.4,160.8,162.4 M160.8,162.4C160.8,162.4,160.8,162.4,160.8,162.4
		C160.8,162.4,160.8,162.4,160.8,162.4 M160.9,162.4C160.8,162.4,160.8,162.4,160.9,162.4C160.8,162.4,160.8,162.4,160.9,162.4
		 M160.9,162.4C160.9,162.4,160.9,162.4,160.9,162.4C160.9,162.4,160.9,162.4,160.9,162.4 M162,160.6c-0.5,0.5-0.8,1.1-1.1,1.8
		C161.1,161.7,161.5,161.1,162,160.6 M162,160.6C162,160.6,162,160.6,162,160.6C162,160.6,162,160.6,162,160.6 M162,160.6
		C162,160.6,162,160.6,162,160.6C162,160.6,162,160.6,162,160.6 M162,160.5C162,160.5,162,160.5,162,160.5
		C162,160.5,162,160.5,162,160.5 M162,160.5C162,160.5,162,160.5,162,160.5C162,160.5,162,160.5,162,160.5 M162,160.5
		C162,160.5,162,160.5,162,160.5C162,160.5,162,160.5,162,160.5 M165.5,158.4C165.5,158.4,165.5,158.4,165.5,158.4
		C165.5,158.4,165.5,158.4,165.5,158.4 M165.5,158.4C165.5,158.4,165.5,158.4,165.5,158.4C165.5,158.4,165.5,158.4,165.5,158.4
		 M165.5,158.4C165.5,158.4,165.5,158.4,165.5,158.4C165.5,158.4,165.5,158.4,165.5,158.4 M165.5,158.3
		C165.5,158.3,165.5,158.3,165.5,158.3C165.5,158.3,165.5,158.3,165.5,158.3 M165.6,158.3C165.6,158.3,165.5,158.3,165.6,158.3
		C165.5,158.3,165.6,158.3,165.6,158.3 M165.6,158.3C165.6,158.3,165.6,158.3,165.6,158.3C165.6,158.3,165.6,158.3,165.6,158.3
		 M165.6,158.3C165.6,158.3,165.6,158.3,165.6,158.3C165.6,158.3,165.6,158.3,165.6,158.3 M166.8,158.1c-0.4,0-0.8,0.1-1.2,0.2
		C166,158.2,166.4,158.2,166.8,158.1 M166.8,158.1C166.8,158.1,166.8,158.1,166.8,158.1C166.8,158.1,166.8,158.1,166.8,158.1
		 M166.9,158.1C166.9,158.1,166.8,158.1,166.9,158.1C166.8,158.1,166.9,158.1,166.9,158.1 M166.9,158.1
		C166.9,158.1,166.9,158.1,166.9,158.1C166.9,158.1,166.9,158.1,166.9,158.1 M166.9,158.1C166.9,158.1,166.9,158.1,166.9,158.1
		C166.9,158.1,166.9,158.1,166.9,158.1 M166.9,158.1L166.9,158.1L166.9,158.1 M167.3,158.1C167.3,158.1,167.2,158.1,167.3,158.1
		L167.3,158.1c0.1,0,0.3,0,0.4,0C167.6,158.1,167.4,158.1,167.3,158.1"/>
	<path class="st1" d="M119.8,158.1c-3.9,0-7.1,3.2-7.1,7.1c0,3.4,2.4,6.2,5.6,6.9c0.4,0.1,0.9,0.1,1.4,0.1c0,0,0.1,0,0.1,0
		c0.5,0,1-0.1,1.5-0.2c3.1-0.7,5.5-3.5,5.5-6.9C126.8,161.3,123.7,158.1,119.8,158.1"/>
	<path class="st0" d="M121.3,172.1c-0.5,0.1-1,0.2-1.5,0.2c0,0-0.1,0-0.1,0c-0.5,0-0.9,0-1.4-0.1c0.5,0.1,0.9,0.1,1.4,0.1
		C120.3,172.2,120.8,172.2,121.3,172.1 M119.7,158.1c-3.9,0-7,3.2-7,7.1c0,0,0,0,0,0C112.7,161.3,115.9,158.1,119.7,158.1
		C119.8,158.1,119.8,158.1,119.7,158.1"/>
	<path class="st0" d="M182.2,219.2v-20.3c0-2.6-2.1-4.7-4.7-4.7h-67.9c-2.6,0-4.7,2.1-4.7,4.7v20.3c0,2.6,2.1,4.7,4.7,4.7h67.9
		C180.1,223.9,182.2,221.8,182.2,219.2 M126.8,209c0.1,3.9-3,7-6.9,7.1l-0.1,0c-3.9,0-7.1-3.2-7.1-7.1c0-3.9,3.1-7,7-7l0.1,0
		C123.7,202,126.8,205.2,126.8,209 M174.4,209c0,3.9-3.2,7.1-7.1,7.1c-3.9,0-7-3.1-7-7l0-0.1c0-3.9,3.1-7,7-7c3.9-0.1,7,3,7.1,6.9
		L174.4,209"/>
	<path class="st1" d="M167.4,202C167.4,202,167.4,202,167.4,202l-0.1,0l0,0l0,0c-3.9,0-7,3.1-7,7c0,0,0,0,0,0l0,0.1c0,0,0,0,0,0
		c0,0,0,0,0,0c0,0,0,0,0,0c0,0,0,0,0,0c0,0,0,0,0,0c0,0,0,0,0,0c0,0,0,0,0,0c0,0.5,0.1,1.1,0.2,1.6c0,0,0,0,0,0c0,0,0,0,0,0
		c0,0,0,0,0,0c0,0,0,0,0,0c0,0,0,0,0,0c0,0,0,0,0,0c0,0,0,0,0,0c0,0,0,0,0,0c0.8,3,3.5,5.2,6.7,5.2l0.1,0c3.9,0,7.1-3.2,7.1-7.1
		l0-0.1c0-0.8-0.1-1.5-0.4-2.2c0,0,0,0,0,0c0,0,0,0,0,0c0,0,0,0,0,0c0,0,0,0,0,0c0,0,0,0,0,0c0,0,0,0,0,0c0,0,0,0,0,0c0,0,0,0,0,0
		c-0.4-1-1-2-1.8-2.7l0,0c0,0,0,0,0,0c0,0,0,0,0,0c0,0,0,0,0,0c0,0,0,0,0,0c0,0,0,0,0,0c0,0,0,0,0,0c0,0,0,0,0,0c0,0,0,0,0,0
		c0,0,0,0,0,0c0,0,0,0,0,0c0,0,0,0,0,0c0,0,0,0,0,0c0,0,0,0,0,0c0,0,0,0,0,0c0,0,0,0,0,0c-0.7-0.6-1.5-1.1-2.5-1.5c0,0,0,0,0,0
		c0,0,0,0,0,0C168.9,202.2,168.2,202,167.4,202C167.5,202,167.4,202,167.4,202"/>
	<path class="st0" d="M160.5,210.9C160.5,210.9,160.5,210.9,160.5,210.9C160.5,210.9,160.5,210.9,160.5,210.9 M160.5,210.9
		C160.5,210.9,160.5,210.9,160.5,210.9C160.5,210.9,160.5,210.9,160.5,210.9 M160.5,210.8C160.5,210.8,160.5,210.8,160.5,210.8
		C160.5,210.8,160.5,210.8,160.5,210.8 M160.5,210.8C160.5,210.8,160.5,210.8,160.5,210.8C160.5,210.8,160.5,210.8,160.5,210.8
		 M160.3,209.2c0,0.5,0.1,1.1,0.2,1.6C160.4,210.3,160.3,209.8,160.3,209.2 M160.3,209.2C160.3,209.2,160.3,209.2,160.3,209.2
		C160.3,209.2,160.3,209.2,160.3,209.2 M160.3,209.2C160.3,209.2,160.3,209.2,160.3,209.2C160.3,209.2,160.3,209.2,160.3,209.2
		 M160.3,209.2C160.3,209.2,160.3,209.2,160.3,209.2C160.3,209.2,160.3,209.2,160.3,209.2 M160.3,209
		C160.3,209.1,160.3,209.1,160.3,209L160.3,209 M174,206.7c0.2,0.7,0.4,1.4,0.4,2.2l0,0.1l0,0C174.4,208.2,174.3,207.4,174,206.7
		 M174,206.7C174,206.7,174,206.7,174,206.7C174,206.7,174,206.7,174,206.7 M174,206.7C174,206.7,174,206.7,174,206.7
		C174,206.7,174,206.7,174,206.7 M174,206.7C174,206.7,174,206.7,174,206.7C174,206.7,174,206.7,174,206.7 M174,206.7
		C174,206.7,174,206.7,174,206.7C174,206.7,174,206.7,174,206.7 M172.2,203.9L172.2,203.9L172.2,203.9 M172.2,203.9
		C172.2,203.9,172.2,203.9,172.2,203.9C172.2,203.9,172.2,203.9,172.2,203.9 M172.2,203.9C172.2,203.9,172.2,203.9,172.2,203.9
		C172.2,203.9,172.2,203.9,172.2,203.9 M172.2,203.9C172.2,203.9,172.2,203.9,172.2,203.9C172.2,203.9,172.2,203.9,172.2,203.9
		 M172.1,203.9C172.2,203.9,172.2,203.9,172.1,203.9C172.2,203.9,172.2,203.9,172.1,203.9 M172.1,203.9
		C172.1,203.9,172.1,203.9,172.1,203.9C172.1,203.9,172.1,203.9,172.1,203.9 M172.1,203.8C172.1,203.9,172.1,203.9,172.1,203.8
		C172.1,203.9,172.1,203.9,172.1,203.8 M172.1,203.8C172.1,203.8,172.1,203.8,172.1,203.8C172.1,203.8,172.1,203.8,172.1,203.8
		 M169.6,202.4c0.9,0.3,1.8,0.8,2.5,1.5C171.4,203.2,170.6,202.7,169.6,202.4 M169.6,202.4C169.6,202.4,169.6,202.4,169.6,202.4
		C169.6,202.4,169.6,202.4,169.6,202.4 M167.4,202L167.4,202C167.4,202,167.4,202,167.4,202C167.4,202,167.5,202,167.4,202
		C167.5,202,167.4,202,167.4,202"/>
	<path class="st1" d="M119.7,202c-3.9,0-7,3.1-7,7c0,3.9,3.2,7.1,7.1,7.1l0.1,0c0.5,0,0.9-0.1,1.4-0.2c3.1-0.7,5.5-3.5,5.5-6.9
		C126.8,205.2,123.6,202,119.7,202"/>
	<path class="st0" d="M112.7,209C112.7,209.1,112.7,209.1,112.7,209c0,3.9,3.2,7.1,7,7.1c0.5,0,1-0.1,1.5-0.2
		c-0.5,0.1-0.9,0.2-1.4,0.2l-0.1,0C115.9,216.1,112.7,213,112.7,209"/>
	<path class="st1" d="M452.4,229.9h-57.3v0.3H196.3v-0.3H47.6c-10.8,0-19.6,8.8-19.6,19.6v90.9c0.1,10.8,8.8,19.5,19.6,19.6h404.8
		c10.8-0.1,19.5-8.8,19.6-19.6v-90.9C472,238.7,463.2,229.9,452.4,229.9"/>
	<polyline class="st0" points="395.1,229.9 196.3,229.9 196.3,230.2 395.1,230.2 395.1,229.9 	"/>
	<path class="st1" d="M452.4,371.4H47.6c-10.8,0-19.6,8.8-19.6,19.6v90.9c0,10.8,8.8,19.6,19.6,19.6h404.8
		c10.8,0,19.6-8.8,19.6-19.6V391C472,380.2,463.2,371.4,452.4,371.4"/>
	<path class="st0" d="M309.4,308.4c-7.5,0-13.5-6-13.5-13.5s6-13.5,13.5-13.5s13.5,6,13.5,13.5l0,0.1c0,7.4-6,13.4-13.4,13.4
		L309.4,308.4z M361,308.4c-7.5,0-13.5-6-13.5-13.5s6-13.5,13.5-13.5s13.5,6,13.5,13.5c0.1,7.4-5.9,13.4-13.3,13.5H361z M410,308.4
		c-7.5,0-13.5-6-13.5-13.5s6-13.5,13.5-13.5s13.5,6,13.5,13.5c0.1,7.4-5.9,13.4-13.3,13.5H410z M309.4,450c-7.5,0-13.5-6-13.5-13.5
		s6-13.5,13.5-13.5s13.5,6,13.5,13.5c0.1,7.4-5.9,13.4-13.3,13.5H309.4z M361,449.9c-7.5,0-13.5-6-13.5-13.5s6-13.5,13.5-13.5
		s13.5,6,13.5,13.5c0.1,7.4-5.9,13.4-13.3,13.5H361z M410,449.9c-7.5,0-13.5-6-13.5-13.5s6-13.5,13.5-13.5s13.5,6,13.5,13.5
		c0.1,7.4-5.9,13.4-13.3,13.5H410z"/>
	<path class="st1" d="M182.3,136.2L182.3,136.2C182.3,136.2,182.3,136.2,182.3,136.2L182.3,136.2c-0.1,0-0.1,0-0.1,0H119v14.1h58.5
		c2.6,0,4.7,2.1,4.7,4.7v20.3l0,0c0,2.6-2.1,4.7-4.7,4.7H119v14.2h58.5c2.6,0,4.7,2.1,4.7,4.7v20.3l0,0c0,2.6-2.1,4.7-4.7,4.7H119v6
		h77.3v-79.6c0-3.7-1.5-7.3-4.1-10c0,0,0,0,0,0c0,0,0,0,0,0c0,0,0,0,0,0c0,0,0,0,0,0c0,0,0,0,0,0C189.5,137.7,186,136.2,182.3,136.2
		C182.3,136.2,182.3,136.2,182.3,136.2"/>
	<path class="st0" d="M192.2,140.3C192.2,140.3,192.2,140.3,192.2,140.3c2.6,2.7,4.1,6.3,4.1,10v79.6v-79.6
		C196.3,146.6,194.8,143,192.2,140.3C192.2,140.3,192.2,140.3,192.2,140.3 M192.1,140.3C192.1,140.3,192.2,140.3,192.1,140.3
		C192.2,140.3,192.1,140.3,192.1,140.3 M192.1,140.2C192.1,140.2,192.1,140.2,192.1,140.2C192.1,140.2,192.1,140.2,192.1,140.2
		 M182.3,136.2C182.2,136.2,182.2,136.2,182.3,136.2l-63.3,0L182.3,136.2C182.2,136.2,182.2,136.2,182.3,136.2 M182.3,136.2
		C182.3,136.2,182.3,136.2,182.3,136.2C182.3,136.2,182.3,136.2,182.3,136.2 M182.3,136.2L182.3,136.2
		C182.3,136.2,182.3,136.2,182.3,136.2C182.3,136.2,182.3,136.2,182.3,136.2"/>
</g>
</svg>
