<?xml version="1.0" encoding="utf-8"?>
<!-- Generator: Adobe Illustrator 27.5.0, SVG Export Plug-In . SVG Version: 6.00 Build 0)  -->
<svg version="1.1" xmlns="http://www.w3.org/2000/svg" xmlns:xlink="http://www.w3.org/1999/xlink" x="0px" y="0px"
	 viewBox="0 0 500 500" style="enable-background:new 0 0 500 500;" xml:space="preserve">
<style type="text/css">
	.st0{opacity:0.35;fill:#1CD643;enable-background:new    ;}
	.st1{fill:#1CD643;}
	.st2{fill:#FFFFFF;}
</style>
<g id="Layer_2">
</g>
<g id="Layer_1">
	<path class="st0" d="M483.8,214v88.4c-0.1,10.4-8.6,18.9-19.1,19H71.4c-10.4-0.1-19-8.5-19.1-19V214c0.1-10.4,8.6-18.9,19.1-19
		h393.4C475.3,195,483.8,203.4,483.8,214z"/>
	<path class="st0" d="M464.7,332.5H71.4c-10.4,0.1-19,8.5-19.1,19v88.4c0.1,10.4,8.6,18.9,19.1,19h393.4c10.4-0.1,19-8.5,19.1-19
		v-88.4C483.8,340.9,475.4,332.5,464.7,332.5L464.7,332.5z"/>
	<path class="st1" d="M325.7,408.7c-7.2,0-13.1-5.9-13.1-13.1c0-7.2,5.9-13.1,13.1-13.1s13.1,5.9,13.1,13.1
		C338.8,402.9,333,408.7,325.7,408.7L325.7,408.7z M375.8,408.7c-7.2,0-13.1-5.9-13.1-13.1c0-7.2,5.9-13.1,13.1-13.1
		c7.2,0,13.1,5.9,13.1,13.1C389,402.9,383.1,408.7,375.8,408.7L375.8,408.7z M423.6,408.7c-7.2,0-13.1-5.9-13.1-13.1
		c0-7.2,5.9-13.1,13.1-13.1s13.1,5.9,13.1,13.1c0.1,7.2-5.8,13-12.9,13.1C423.7,408.7,423.7,408.7,423.6,408.7z M423.6,245
		c-7.2,0-13.1,5.9-13.1,13.1c0,7.2,5.9,13.1,13.1,13.1s13.1-5.9,13.1-13.1c0.1-7.2-5.8-13-12.9-13.1C423.7,245,423.7,245,423.6,245z
		 M375.8,245c-7.2,0-13.1,5.9-13.1,13.1c0,7.2,5.9,13.1,13.1,13.1c7.2,0,13.1-5.9,13.1-13.1C389,250.8,383.1,245,375.8,245
		L375.8,245z M325.7,245c-7.2,0-13.1,5.9-13.1,13.1c0,7.2,5.9,13.1,13.1,13.1s13.1-5.9,13.1-13.1C338.8,250.9,333,245,325.7,245
		L325.7,245z"/>
	<path class="st2" d="M119.2,263.1c-61.6,0-111.6,49.9-111.6,111.6s49.9,111.6,111.6,111.6c0,0,0,0,0.1,0
		c61.6,0,111.6-49.9,111.6-111.6C230.9,313.1,180.9,263.1,119.2,263.1C119.3,263.1,119.3,263.1,119.2,263.1z"/>
	<path class="st1" d="M29.7,374.7c0,35.4,20.6,66,50.4,80.5l-42.7-117C32.5,349.4,29.7,361.7,29.7,374.7z M179.7,370.2
		c0-11.1-5.9-18.7-9.3-24.7c-4.5-7.4-8.8-13.6-8.8-21c0-8.2,8.2-15.9,17-15.9c0.4,0,0.8,0,1.2,0c-15.9-14.6-37.1-23.5-60.4-23.5
		c-30.1,0-56.8,14.9-73,37.7c1.3,0.4,1.7,0.2,3.4,0.2c9.3,0,23.8-1.1,23.8-1.1c4.8-0.3,5.4,6.8,0.6,7.4c0,0-4.8,0.6-10.2,0.9
		L97,429.7l19.6-58.7L102,330.4c-4.8-0.3-9.4-0.9-9.4-0.9c-4.8-0.3-4.3-7.7,0.5-7.4c0,0,14.8,1.1,23.6,1.1c9.4,0,23.8-1.1,23.8-1.1
		c4.8-0.3,5.4,6.8,0.6,7.4c0,0-4.9,0.6-10.2,0.9l32.9,98.5l8.9-29.8C177.4,387.5,179.7,377.9,179.7,370.2z M120.8,382.5l-26.8,78
		c8,2.4,16.5,3.6,25.3,3.6c10.4,0,20.4-1.8,29.7-5.1c-0.2-0.4-0.5-0.8-0.7-1.2L120.8,382.5z M197.8,331.7c0.4,2.9,0.6,5.9,0.6,9.2
		c0,9.1-1.7,19.3-6.8,32.1l-27.3,79.1c26.6-15.5,44.5-44.4,44.5-77.4C208.7,359.1,204.7,344.5,197.8,331.7z"/>
	<path class="st1" d="M7.4,374.7c0,61.7,50.2,111.9,111.9,111.9c61.7,0,111.9-50.2,111.9-111.9s-50.2-111.9-111.9-111.9
		S7.4,313,7.4,374.7z M18.5,374.7c0-55.5,45.2-100.7,100.7-100.7s100.7,45.2,100.7,100.7s-45.2,100.7-100.7,100.7
		C63.7,475.4,18.5,430.2,18.5,374.7z"/>
	<path class="st1" d="M471.3,196.1c-2-0.7-4.2-1.1-6.5-1.1H71.4c-1.4,0-2.8,0.2-4.2,0.5c-0.1-1.6-0.1-3.1-0.1-4.7
		c0-34.3,21.8-63.5,52.2-74.5c4.9-26.3,28-46.2,55.7-46.2c5.7,0,11.1,0.9,16.3,2.4c22.4-35.4,62-59,107-59
		c66.6,0,121.2,51.5,126.1,116.8C451.3,140.3,470.7,165.9,471.3,196.1z"/>
	<g>
		<g>
			<path class="st2" d="M375.7,95.9c-2,0-4.1-1-5.4-2.8c-13-19.1-34.6-30.5-57.7-30.5c-2.4,0-4.8,0.1-7.1,0.3
				c-3.6,0.3-6.7-2.2-7.1-5.8c-0.3-3.6,2.2-6.7,5.8-7.1c2.8-0.3,5.6-0.4,8.4-0.4c27.4,0,52.9,13.5,68.4,36.2c2,3,1.3,7-1.7,9
				C378.1,95.5,376.9,95.9,375.7,95.9z"/>
		</g>
	</g>
</g>
</svg>
